<svg width="100" height="100" viewBox="0 0 100 100" fill="none" xmlns="http://www.w3.org/2000/svg">
  <!-- Exact Geometry based on reference -->
  
  <!-- Outer Hexagon Path -->
  <path d="M50 12L82.9 31V69L50 88L17.1 69V31L50 12Z" stroke="#10B981" stroke-width="4.5" stroke-linejoin="round"/>
  
  <!-- Vertex Dots -->
  <circle cx="50" cy="12" r="3.2" fill="#10B981"/>
  <circle cx="82.9" cy="31" r="3.2" fill="#10B981"/>
  <circle cx="82.9" cy="69" r="3.2" fill="#10B981"/>
  <circle cx="50" cy="88" r="3.2" fill="#10B981"/>
  <circle cx="17.1" cy="69" r="3.2" fill="#10B981"/>
  <circle cx="17.1" cy="31" r="3.2" fill="#10B981"/>

  <!-- Inner Hexagon (fainter) -->
  <path d="M50 28L69.05 39V61L50 72L30.95 61V39L50 28Z" stroke="#10B981" stroke-width="1.2" stroke-opacity="0.4"/>
  <path d="M50 28L69.05 39V61L50 72L30.95 61V39L50 28Z" fill="#10B981" fill-opacity="0.08"/>

  <!-- Crosshairs -->
  <line x1="31" y1="50" x2="69" y2="50" stroke="#10B981" stroke-width="1.2" stroke-opacity="0.8"/>
  <line x1="50" y1="28" x2="50" y2="72" stroke="#10B981" stroke-width="1.2" stroke-opacity="0.8"/>

  <!-- Central Dot -->
  <circle cx="50" cy="50" r="4" fill="#10B981"/>
</svg>
